# xmcd
#
# Track frame offsets: 
#        150
#        11315
#        27478
#        40337
#        51514
#        68689
#        79309
#        91479
#        107192
#        119470
#        129982
#
# Disc length: 1880 seconds
#
# Revision: 0
# Processed by: cddbd v1.5.2PL0 Copyright (c) Steve Scherf et al.
# Submitted via: ExactAudioCopy v1.3
#
DISCID=9207560b
DTITLE=John Lee Hooker - Burnin'
DYEAR=1962
DGENRE=Blues
TTITLE0=Boom Boom
TTITLE1=Process
TTITLE2=Lost a Good Girl
TTITLE3=A New Leaf
TTITLE4=Blues Before Sunrise
TTITLE5=Let's Make It
TTITLE6=I Got a Letter
TTITLE7=Thelma
TTITLE8=Drug Store Woman
TTITLE9=Keep Your Hands to Yourself
TTITLE10=What Do You Say
EXTD=
EXTT0=
EXTT1=
EXTT2=
EXTT3=
EXTT4=
EXTT5=
EXTT6=
EXTT7=
EXTT8=
EXTT9=
EXTT10=
PLAYORDER=
